<svg id="Layer_2" data-name="Layer 2" xmlns="http://www.w3.org/2000/svg" viewBox="0 0 180.5 180.5"><title>customs-icon</title><path d="M171.87,4.69H19.37a14,14,0,0,0-14,14v152.5a14,14,0,0,0,14,14h152.5a14,14,0,0,0,14-14V18.69A14,14,0,0,0,171.87,4.69Zm10,166.5a10,10,0,0,1-10,10H19.37a10,10,0,0,1-10-10V18.69a10,10,0,0,1,10-10h152.5a10,10,0,0,1,10,10Z" transform="translate(-5.37 -4.69)"/><polygon points="137.53 41.92 137.53 31.72 100.81 31.72 106.93 41.92 137.53 41.92"/><path d="M131.17,72.11c6.63-1.53,11.73-7.65,11.73-7.65V51.2H113.32l-7.14,7.14,7.14.51C113.32,66.5,124.54,73.64,131.17,72.11Z" transform="translate(-5.37 -4.69)"/><path d="M142.9,77.21,108.36,75.3a5.36,5.36,0,0,0-5.76,1.88L73.24,115.73a5.37,5.37,0,0,0,1,7.51l1.9,1.45a5.37,5.37,0,0,0,7.51-1L106.18,94.1v28Z" transform="translate(-5.37 -4.69)"/><path d="M151.06,77.72,116.89,122.1h29.58v9.69H109.24v14.79h50.49V84.87S157.18,75.68,151.06,77.72Z" transform="translate(-5.37 -4.69)"/><path d="M47,131.28v10.2a5.45,5.45,0,0,0,4.59,5.1h44s4.44-.51,4.95-4.59a69,69,0,0,0,0-10.71Z" transform="translate(-5.37 -4.69)"/><path d="M34.77,77.43s-4.59-.21-4.59,7.44v40.8s2.55,5.1,4.59,5.61,12.24,0,12.24,0V77.43Z" transform="translate(-5.37 -4.69)"/></svg>