<?xml version="1.0" encoding="utf-8"?>
<!-- Generator: Adobe Illustrator 16.0.0, SVG Export Plug-In . SVG Version: 6.00 Build 0)  -->
<!DOCTYPE svg PUBLIC "-//W3C//DTD SVG 1.1//EN" "http://www.w3.org/Graphics/SVG/1.1/DTD/svg11.dtd">
<svg version="1.1" xmlns="http://www.w3.org/2000/svg" xmlns:xlink="http://www.w3.org/1999/xlink" x="0px" y="0px"
	 width="63.959px" height="59.351px" viewBox="0 0 63.959 59.351" enable-background="new 0 0 63.959 59.351" xml:space="preserve">
<g id="Layer_1">
	<path d="M61.754,45.516V32.617c-0.539-6.353-6.25-7.33-6.25-7.33l-20.39-0.058V13.786c1.235-0.573,2.099-1.85,2.099-3.341v-6.78
		C37.214,1.641,35.628,0,33.672,0h-4.25c-1.956,0-3.542,1.641-3.542,3.665v6.78c0,1.491,0.864,2.769,2.099,3.341v11.499
		c0,0-13.625-0.235-19.048-0.048c-7.111,0.244-7.086,6.648-7.086,6.648v13.822C0.75,46.331,0,47.521,0,48.906v6.78
		c0,2.024,1.586,3.665,3.542,3.665h4.25c1.957,0,3.542-1.641,3.542-3.665v-6.78c0-1.601-0.999-2.948-2.381-3.447L8.784,33.297
		l19.195-0.19v12.458c-1.235,0.573-2.099,1.85-2.099,3.341v6.78c0,2.024,1.586,3.665,3.542,3.665h4.25
		c1.956,0,3.542-1.641,3.542-3.665v-6.78c0-1.491-0.864-2.769-2.099-3.341V33.129l19.503-0.015v12.511
		c-1.176,0.596-1.993,1.835-1.993,3.282v6.78c0,2.024,1.586,3.665,3.542,3.665h4.25c1.956,0,3.542-1.641,3.542-3.665v-6.78
		C63.959,47.373,63.047,46.062,61.754,45.516z M5.667,56.327c-2.151,0-3.895-1.805-3.895-4.03c0-2.227,1.743-4.031,3.895-4.031
		s3.895,1.804,3.895,4.031C9.562,54.522,7.818,56.327,5.667,56.327z M31.546,3.024c2.151,0,3.895,1.804,3.895,4.03
		s-1.744,4.031-3.895,4.031s-3.895-1.804-3.895-4.031S29.395,3.024,31.546,3.024z M31.546,56.327c-2.151,0-3.895-1.805-3.895-4.03
		c0-2.227,1.744-4.031,3.895-4.031s3.895,1.804,3.895,4.031C35.441,54.522,33.698,56.327,31.546,56.327z M58.292,56.327
		c-2.151,0-3.895-1.805-3.895-4.03c0-2.227,1.744-4.031,3.895-4.031s3.895,1.804,3.895,4.031
		C62.187,54.522,60.443,56.327,58.292,56.327z"/>
</g>
<g id="Layer_2">
</g>
</svg>
